<svg version="1.1" id="Layer_1" xmlns="http://www.w3.org/2000/svg" xmlns:xlink="http://www.w3.org/1999/xlink" x="0px" y="0px"
	 width="100%" viewBox="0 0 368 368" enable-background="new 0 0 368 368" xml:space="preserve">
<path fill="#000000" opacity="1.000000" stroke="none" 
	d="
M209.000000,369.000000 
	C139.356827,369.000000 70.213646,369.000000 1.035236,369.000000 
	C1.035236,246.398499 1.035236,123.796974 1.035236,1.097728 
	C123.559784,1.097728 246.119675,1.097728 368.839783,1.097728 
	C368.839783,123.666496 368.839783,246.333237 368.839783,369.000000 
	C315.797058,369.000000 262.648529,369.000000 209.000000,369.000000 
M231.538895,328.792847 
	C231.092163,330.041016 230.583649,331.271301 230.215332,332.542206 
	C229.811203,333.936615 228.840454,335.541077 230.303848,336.724976 
	C232.159607,338.226196 233.235168,336.279694 234.547974,335.413055 
	C242.615448,330.087555 250.104599,324.130951 256.878815,317.153076 
	C276.803040,296.629974 279.386261,271.362122 268.802887,246.672546 
	C260.911530,228.263107 246.471161,216.568207 228.406464,208.815567 
	C222.145477,206.128601 215.613922,203.938004 208.727798,199.838501 
	C215.681885,196.573105 221.630783,196.199814 227.386887,198.869141 
	C234.469742,202.153717 241.293900,206.000031 248.204300,209.651901 
	C264.579590,218.305557 276.152100,231.397415 283.369293,248.327820 
	C288.611969,260.626282 291.894165,273.443573 292.381165,286.885010 
	C292.435242,288.376923 292.377777,289.962097 294.329407,290.522980 
	C296.542419,289.683289 296.829041,287.465790 297.407562,285.689148 
	C299.774170,278.420654 302.167450,271.144653 304.093323,263.752258 
	C308.026459,248.654907 307.398621,233.826157 300.413818,219.607056 
	C295.874725,210.366791 295.876740,210.512131 305.410828,206.227417 
	C308.314911,204.922302 310.034271,205.606720 311.762451,207.906815 
	C315.454834,212.821228 319.070282,217.760086 321.666229,223.388992 
	C322.592926,225.398392 323.308441,227.870926 325.967987,228.127197 
	C327.320648,227.731567 327.826752,226.757263 328.003937,225.829330 
	C329.745270,216.710480 331.170868,207.625290 330.246277,198.209167 
	C329.614868,191.778931 326.482239,185.361389 327.966522,179.083649 
	C330.614624,167.883575 331.212158,156.750351 329.501709,145.501190 
	C328.908417,141.599319 330.091614,136.748993 325.389313,133.794678 
	C324.645416,134.691788 323.961731,135.224884 323.662170,135.922882 
	C320.827789,142.527069 316.976135,148.526810 312.640961,154.205200 
	C311.325531,155.928177 309.977356,158.606277 307.093536,157.360703 
	C303.366058,155.750732 299.475372,154.282196 296.355072,151.217819 
	C300.656372,144.856339 304.047272,138.311432 305.472961,131.098633 
	C309.299011,111.742058 304.183929,93.571335 297.446472,75.684174 
	C297.132599,74.850952 296.657349,74.200653 295.753326,74.040924 
	C294.480530,73.816040 293.950836,74.708511 293.631287,75.687271 
	C293.168091,77.105804 292.478821,78.558853 292.471924,79.999985 
	C292.434784,87.761658 290.162140,95.087227 288.103943,102.416214 
	C283.699249,118.100800 276.013763,132.101654 263.703369,142.833191 
	C252.873108,152.274399 239.937958,158.670517 226.807541,164.397385 
	C221.142334,166.868271 215.236237,167.294785 208.833038,162.804657 
	C213.705276,160.803574 217.699738,159.310028 221.571411,157.546906 
	C236.775558,150.623032 251.638962,143.277512 261.683655,128.995880 
	C274.800995,110.345512 278.781830,89.997337 271.334259,68.487511 
	C265.519623,51.693863 252.497131,40.210644 238.225098,30.275230 
	C236.524185,29.091146 234.579712,26.993454 232.433395,28.569908 
	C230.019684,30.342772 231.866440,32.854782 232.404892,35.006866 
	C232.807144,36.614532 233.465027,38.156906 233.978546,39.738270 
	C241.859055,64.005989 242.678574,88.258934 233.470703,112.371788 
	C231.857117,116.597328 231.008530,121.331711 227.413818,124.738075 
	C226.840302,124.354515 226.350204,124.163353 226.055313,123.809517 
	C218.941025,115.272758 205.187683,116.816505 199.668457,126.448120 
	C194.446243,135.561417 194.670166,145.301895 195.831390,155.061600 
	C196.270386,158.751282 198.244858,162.199539 193.617035,166.704727 
	C201.822281,164.985382 204.971985,169.926300 208.940674,173.412994 
	C207.620590,176.257339 205.725021,176.780899 203.552032,175.199188 
	C198.203156,171.305725 192.744446,167.622757 188.542206,162.266342 
	C182.475647,154.533539 183.640335,145.649200 183.644882,136.902618 
	C183.655487,116.449348 198.460236,105.562569 217.894547,111.754715 
	C220.582870,112.611267 223.043442,112.714775 225.658646,111.697327 
	C227.116837,111.130020 228.560959,110.546417 228.949341,108.947609 
	C229.424225,106.992851 227.886826,105.876610 226.608398,104.873535 
	C217.526611,97.747879 209.762100,89.314285 202.871353,80.145378 
	C194.164551,68.560005 186.797409,56.135616 181.291275,42.664097 
	C180.633362,41.054443 180.137894,38.834789 177.870361,38.806160 
	C175.609283,38.777615 175.124603,41.021309 174.342102,42.567852 
	C169.017441,53.091511 163.563995,63.474850 157.094223,73.424431 
	C149.443710,85.189819 139.395752,94.534142 129.707245,104.328934 
	C128.172684,105.880333 124.968071,106.754654 126.695107,109.683289 
	C128.134216,112.123672 130.920120,112.884186 133.729950,112.339020 
	C137.148178,111.675812 140.480347,110.504700 143.915482,110.006699 
	C150.671707,109.027214 156.895462,109.357727 162.255157,114.964615 
	C172.841248,126.038925 172.618210,139.364578 170.482422,152.820328 
	C168.737503,163.813492 159.664490,169.477112 151.234573,175.199112 
	C149.246078,176.548843 147.465042,175.888351 146.224106,173.221085 
	C150.686371,170.485870 153.418182,165.023788 160.140137,165.717682 
	C159.263824,162.906296 157.181244,160.998230 158.589600,157.966537 
	C162.059021,150.498062 161.012970,142.649948 159.266281,134.980103 
	C156.336700,122.116096 142.052002,111.125671 128.365372,123.641731 
	C127.169373,123.283157 126.373322,122.476219 125.866859,121.366837 
	C119.802490,108.083153 115.834892,94.165962 115.762543,79.565681 
	C115.683212,63.555882 118.035851,47.804153 124.320374,32.860847 
	C125.056580,31.110306 126.828552,28.981014 124.847107,27.405302 
	C122.761917,25.747082 120.914642,27.840014 119.117844,28.967987 
	C111.627312,33.670322 104.653603,39.111820 98.867043,45.737446 
	C86.361862,60.055878 78.135841,75.658546 81.075783,95.994011 
	C84.805832,121.794594 98.695709,139.569473 121.026596,151.416519 
	C129.027161,155.660980 137.590607,158.844421 145.965607,162.542374 
	C142.090134,166.808029 135.299057,167.715149 128.508743,164.660675 
	C123.515739,162.414673 118.638870,159.881088 113.838326,157.242615 
	C103.049667,151.312973 92.413902,145.180206 84.550758,135.288055 
	C71.045311,118.297653 64.682693,98.768852 63.622177,77.308685 
	C63.538376,75.612885 63.587406,73.650932 61.483562,73.336143 
	C59.645451,73.061119 59.029751,74.871109 58.560532,76.245354 
	C56.522438,82.214500 54.425011,88.171997 52.663830,94.225281 
	C49.134232,106.356720 47.856594,118.725761 50.492878,131.177811 
	C52.077572,138.662842 55.762833,145.388931 60.149406,151.701035 
	C45.962650,158.664215 48.161011,161.120438 38.579838,148.131256 
	C35.364956,143.772842 34.293274,138.133224 30.420883,134.327713 
	C28.592112,134.800568 27.842323,135.936813 27.596300,137.271194 
	C25.663519,147.754044 24.674177,158.233963 25.886339,168.957397 
	C26.526016,174.616333 29.002964,180.060455 27.352850,186.091736 
	C23.765493,199.203812 25.034613,212.425049 27.425144,225.591080 
	C27.639400,226.771072 27.819613,228.002701 29.228281,228.270218 
	C30.668642,228.543762 31.170519,227.424408 31.779673,226.375168 
	C34.111595,222.358459 36.466137,218.352768 38.911930,214.404709 
	C44.911713,204.719696 45.285946,204.791748 55.552818,209.117661 
	C59.346130,210.715942 59.601742,212.158112 57.353916,215.272324 
	C50.776749,224.384491 48.666458,234.925385 48.408615,245.874023 
	C48.068481,260.316772 53.418194,273.499390 58.019985,286.820831 
	C58.391315,287.895752 58.786274,289.209930 60.269001,289.136536 
	C61.950787,289.053253 62.334351,287.687836 62.557426,286.323761 
	C62.931850,284.034180 63.404839,281.750305 63.603329,279.443970 
	C65.016235,263.027008 70.722015,248.117966 79.584740,234.377426 
	C91.572464,215.791992 110.546715,206.703156 129.884262,198.487030 
	C134.665726,196.455490 140.618759,196.186203 146.696457,200.283157 
	C137.775482,204.218735 129.824860,207.497299 122.097900,211.261017 
	C105.424454,219.382507 93.009048,231.454514 85.705040,248.590683 
	C80.907730,259.845795 78.775856,271.652130 80.977020,283.684418 
	C84.878555,305.011505 98.590027,319.655975 115.586990,331.683258 
	C118.324112,333.620056 120.804070,336.369873 124.540016,336.609894 
	C125.503609,333.603943 125.505394,333.603210 124.447769,330.982697 
	C114.683647,306.789520 112.719200,282.047821 119.899918,256.887146 
	C121.671555,250.679474 123.385040,244.151779 128.029236,238.888458 
	C129.074585,239.581177 129.800598,239.964615 130.412674,240.482666 
	C138.465790,247.299423 146.878983,246.880142 153.862778,238.944489 
	C162.058899,229.631332 161.629028,218.506592 159.603989,207.323456 
	C159.001404,203.995651 156.991547,200.898499 160.454514,197.092758 
	C153.288544,197.901733 150.916534,192.329712 146.556259,189.845184 
	C148.775284,185.890488 151.296066,187.368820 153.503494,188.888046 
	C166.011337,197.496384 174.536789,208.260529 172.340088,224.642258 
	C171.987427,227.272247 171.866302,229.955322 171.263687,232.526077 
	C168.085419,246.084595 159.024261,256.942780 141.565079,252.579620 
	C138.505173,251.814926 135.417313,251.227585 132.196869,251.371964 
	C129.249268,251.504074 127.065941,252.369537 126.199890,255.677322 
	C149.966354,274.176392 165.218811,298.944519 177.074219,326.417633 
	C181.762421,323.059418 182.226456,318.459717 184.091278,314.687134 
	C194.797485,293.028198 208.150314,273.386047 226.958313,257.837219 
	C228.163162,256.841125 229.994064,255.934723 229.010864,253.813766 
	C228.236694,252.143753 226.753128,251.603912 224.967941,251.343979 
	C220.541870,250.699600 216.415955,252.147537 212.193390,252.922348 
	C204.178238,254.393051 197.291870,253.140396 191.422867,246.616226 
	C182.614944,236.825012 181.794952,212.891449 187.815033,202.648254 
	C189.221741,200.254715 191.181366,198.239899 193.839279,197.215302 
	C196.962402,200.071442 197.471252,202.858765 196.545990,206.806168 
	C194.222015,216.720947 194.445084,226.502090 199.778107,235.787125 
	C205.389343,245.556580 216.915314,247.884079 225.397537,240.588455 
	C226.138336,239.951279 226.833832,239.137466 228.433777,239.736786 
	C233.628906,250.726059 238.452988,262.239807 239.253128,274.788666 
	C240.413467,292.986267 239.127075,310.991577 231.538895,328.792847 
z"/>
<path fill="#000000" opacity="1.000000" stroke="none" 
	d="
M176.459229,200.759293 
	C171.363586,193.293976 164.244675,188.140121 158.662170,181.448105 
	C159.710190,178.299271 162.989822,177.461166 164.815277,175.174683 
	C168.010147,171.172882 171.626556,167.510361 174.981277,163.632111 
	C176.336151,162.065781 177.771255,160.811111 179.395767,162.916077 
	C184.649017,169.722992 190.420715,176.017715 198.072708,181.574615 
	C190.516525,187.423431 184.931702,194.084015 179.090073,200.505920 
	C178.668198,200.969681 177.567703,200.816147 176.459229,200.759293 
z"/>
<path fill="#000000" opacity="1.000000" stroke="none" 
	d="
M181.345276,89.382111 
	C178.985260,92.287506 176.691620,92.133598 174.262833,90.111534 
	C172.990372,89.052155 171.856750,87.781815 170.468704,86.913086 
	C164.414001,83.123665 164.422516,83.186234 168.297989,77.120026 
	C170.433685,73.777092 172.459717,70.362793 174.479797,66.947914 
	C175.352081,65.473343 176.284576,64.178001 178.509842,64.066010 
	C182.076553,69.612305 185.717651,75.259514 189.341644,80.917686 
	C190.597336,82.878212 190.009476,84.294403 188.048233,85.392494 
	C185.884109,86.604202 183.782410,87.927391 181.345276,89.382111 
z"/>
<path fill="#000000" opacity="1.000000" stroke="none" 
	d="
M169.239746,286.644745 
	C164.490265,280.481812 164.575546,279.987946 170.649078,276.218445 
	C171.771866,275.521576 173.004272,274.893311 173.900406,273.959290 
	C176.669403,271.073120 179.285522,271.151764 182.030441,273.946167 
	C182.715424,274.643494 183.540939,275.300110 184.427795,275.686157 
	C190.762970,278.443634 192.239029,279.021698 186.701385,286.604248 
	C183.724350,290.680634 182.048508,295.694122 177.507416,299.575653 
	C174.689774,295.160736 172.069687,291.055389 169.239746,286.644745 
z"/>
<path fill="#000000" opacity="1.000000" stroke="none" 
	d="
M185.335297,97.903954 
	C188.978195,96.602982 192.269058,95.457901 196.941437,97.145485 
	C189.535324,102.740456 182.479004,107.074623 177.485229,114.680016 
	C172.321198,107.136421 165.134338,102.698944 159.192841,96.622772 
	C163.485779,96.412727 167.474167,96.324699 171.224594,98.852516 
	C178.465149,103.732666 178.539505,103.622353 185.335297,97.903954 
z"/>
<path fill="#000000" opacity="1.000000" stroke="none" 
	d="
M153.831070,218.111664 
	C149.500580,226.586868 140.866928,231.673233 132.342178,230.628342 
	C137.006683,221.004120 144.001434,213.658783 151.762787,206.466248 
	C154.979233,210.248123 154.519653,213.992264 153.831070,218.111664 
z"/>
<path fill="#000000" opacity="1.000000" stroke="none" 
	d="
M221.037384,136.809937 
	C215.464767,143.668259 211.483200,151.537842 203.609924,155.816772 
	C200.802322,151.810669 200.909958,145.415161 203.592651,141.217712 
	C207.082306,135.757660 216.579254,131.437714 222.771866,132.504913 
	C223.355606,134.252701 221.702942,135.149368 221.037384,136.809937 
z"/>
<path fill="#000000" opacity="1.000000" stroke="none" 
	d="
M269.482483,182.431244 
	C262.459229,184.190933 255.592529,183.231430 248.847244,184.243851 
	C243.320282,185.073410 237.617477,184.265686 231.985458,185.233643 
	C227.188736,186.058029 222.582443,184.818924 217.691956,181.641052 
	C222.244308,178.816910 226.463791,177.202682 231.161438,177.742310 
	C241.871399,178.972519 252.593719,179.697189 263.377594,179.699493 
	C265.652222,179.699982 267.994537,180.234833 270.178955,180.924637 
	C271.797760,181.435852 270.498993,181.972519 269.482483,182.431244 
z"/>
<path fill="#000000" opacity="1.000000" stroke="none" 
	d="
M117.751175,178.625488 
	C128.720901,177.295486 131.850174,177.743713 137.460693,181.562546 
	C133.177368,184.700256 128.551819,185.794235 123.515808,185.250031 
	C113.471199,184.164597 103.414200,183.324203 93.302048,183.380234 
	C90.469597,183.395920 87.703957,183.221298 85.161964,181.086502 
	C95.802216,179.452789 106.502235,178.622803 117.751175,178.625488 
z"/>
<path fill="#000000" opacity="1.000000" stroke="none" 
	d="
M146.435715,151.560303 
	C141.417587,145.479645 136.103973,140.043396 132.777573,132.902908 
	C146.521713,132.354874 158.931519,143.131866 152.492813,155.828979 
	C149.528809,156.025650 148.589157,153.198181 146.435715,151.560303 
z"/>
<path fill="#000000" opacity="1.000000" stroke="none" 
	d="
M219.181335,230.661621 
	C208.224670,229.096848 201.136124,221.488083 201.635773,212.175491 
	C201.727310,210.469635 201.874222,208.864487 203.855667,207.388306 
	C211.725525,213.607895 218.055527,221.147614 222.510864,230.143509 
	C221.430664,231.453400 220.485413,231.110779 219.181335,230.661621 
z"/>
<path fill="#000000" opacity="1.000000" stroke="none" 
	d="
M175.537811,251.491486 
	C176.785446,250.221588 178.242310,249.209763 179.175674,250.600266 
	C183.590683,257.177643 190.978806,260.482300 197.106903,266.935059 
	C191.238419,266.668060 186.339569,267.060669 182.804016,262.830933 
	C179.577103,258.970428 176.464066,259.100800 173.331482,262.729401 
	C170.859207,265.593109 167.514130,266.289917 164.071899,266.950897 
	C162.657455,267.222504 161.331512,267.410309 160.731247,265.816833 
	C160.166626,264.317932 161.602097,263.956879 162.462006,263.240662 
	C166.873169,259.566528 172.405029,257.140564 175.537811,251.491486 
z"/>
<path fill="#000000" opacity="1.000000" stroke="none" 
	d="
M199.822647,197.164825 
	C197.828720,197.372131 196.631180,196.528183 195.420547,195.649216 
	C199.450882,189.621429 204.978287,186.994766 209.061340,189.408112 
	C206.538696,192.545044 203.272720,194.724396 199.822647,197.164825 
z"/>
</svg>